<svg id="regular" enable-background="new 0 0 24 24"  fill="#fff" height="512" viewBox="0 0 24 24" width="512" xmlns="http://www.w3.org/2000/svg"><path d="m19.988 16.38c.285-.252.508-.569.634-.94l1.258-3.703c.393-1.156-.225-2.418-1.377-2.813-.479-.164-.986-.149-1.456.02.018-.125.031-.248.031-.368 0-1.161-.733-2.189-1.82-2.558-.484-.167-.993-.186-1.48-.073l.585-1.722c.109-.33.165-.675.165-1.028 0-1.363-.864-2.58-2.156-3.029-1.657-.561-3.473.333-4.046 1.996l-1.109 3.272-.988-3.182c-.524-1.708-2.395-2.641-3.993-2.108-1.672.534-2.612 2.332-2.094 4.009l1.759 5.63h-.176c-.414 0-.75.336-.75.75v4.891c0 4.729 3.83 8.575 8.538 8.575 4.345 0 7.995-3.32 8.475-7.619zm.029-6.037c.372.127.57.537.443.912l-1.259 3.704c-.126.37-.523.574-.9.446-.372-.127-.571-.537-.443-.912l1.258-3.703c.128-.376.531-.574.901-.447zm-3.244-2.905c.573.194.961.828.738 1.531l-1.891 5.553c-.21.634-.891.965-1.502.752-.386-.135-.666-.446-.771-.816.02-.019.044-.033.063-.053.517-.504.801-1.185.801-1.916 0-.29-.058-.564-.142-.826 1.252-3.369 1.06-3.813 1.783-4.17.286-.141.613-.161.921-.055zm-13.198-3.73c-.276-.892.226-1.85 1.128-2.138.8-.268 1.81.2 2.093 1.125l1.674 5.39c.22.7 1.211.653 1.427.018l1.848-5.455c.304-.881 1.266-1.359 2.141-1.062.892.31 1.346 1.284 1.055 2.16-.089.263-1.47 4.326-1.386 4.08l-.777 2.287c-.379-.204-.805-.331-1.265-.331h-6.047zm7.938 18.791c-3.881 0-7.038-3.174-7.038-7.075v-4.141h7.038c.66 0 1.197.541 1.197 1.207 0 .324-.124.623-.364.857-.217.225-.514.349-.833.349-.72 0-3.556 0-3.407 0-.414 0-.75.336-.75.75s.336.75.75.75h.233c2.276 0 1.905 2.574 1.938 2.674 0 .414.336.75.75.75s.75-.336.75-.75c-.042-.395.206-1.49-.606-2.674.266-.008.443.023.831-.048.289.703.866 1.277 1.622 1.543 1.054.366 2.244.056 2.982-.893.256.464.671.842 1.21 1.026.186.064.376.095.567.108-.696 3.19-3.534 5.567-6.87 5.567z"/></svg>